<?xml version="1.0" encoding="UTF-8" standalone="no"?>
<!DOCTYPE svg PUBLIC "-//W3C//DTD SVG 1.1//EN" "http://www.w3.org/Graphics/SVG/1.1/DTD/svg11.dtd">
<svg width="100%" height="100%" viewBox="0 0 64 96" version="1.1" xmlns="http://www.w3.org/2000/svg" xmlns:xlink="http://www.w3.org/1999/xlink" xml:space="preserve" xmlns:serif="http://www.serif.com/" style="fill-rule:evenodd;clip-rule:evenodd;stroke-linejoin:round;stroke-miterlimit:2;">
    <g transform="matrix(1,0,0,1,-136,-200)">
        <g id="add6" transform="matrix(1,0,0,1,136,200)">
            <rect x="0" y="0" width="64" height="96" style="fill:none;"/>
            <clipPath id="_clip1">
                <rect x="0" y="0" width="64" height="96"/>
            </clipPath>
            <g clip-path="url(#_clip1)">
                <g transform="matrix(0.914286,0,0,0.880734,-658.286,-559.266)">
                    <path d="M785.625,635C786.785,635 787.898,635.478 788.719,636.33C789.539,637.182 790,638.337 790,639.542L790,739.458C790,740.663 789.539,741.818 788.719,742.67C787.898,743.522 786.785,744 785.625,744L724.375,744C723.215,744 722.102,743.522 721.281,742.67C720.461,741.818 720,740.663 720,739.458L720,639.542C720,638.337 720.461,637.182 721.281,636.33C722.102,635.478 723.215,635 724.375,635L785.625,635Z" style="fill:rgb(237,123,43);"/>
                </g>
                <g transform="matrix(-0.95,5.55112e-17,-5.55112e-17,-0.95,159,93.6)">
                    <path d="M152.632,56.142L113.388,36.017C111.631,35.116 110.526,33.308 110.526,31.334L110.526,13.263C110.526,10.356 112.883,8 115.789,8L151.579,8C154.486,8 156.842,10.356 156.842,13.263L156.842,82.737C156.842,85.644 154.486,88 151.579,88L110.526,88L110.526,75.368L151.579,75.368C152.16,75.368 152.632,74.897 152.632,74.316L152.632,56.142ZM152.632,42.989L152.632,21.684C152.632,21.103 152.16,20.632 151.579,20.632L115.789,20.632C115.208,20.632 114.737,21.103 114.737,21.684L114.737,22.913C114.737,23.307 114.958,23.669 115.309,23.849L152.632,42.989Z" style="fill:rgb(230,225,228);"/>
                </g>
                <g transform="matrix(1,0,0,1,-48,-88)">
                    <rect x="78" y="122" width="24" height="8" style="fill:rgb(230,225,228);"/>
                </g>
                <g transform="matrix(6.12323e-17,-1,1,6.12323e-17,-84,124)">
                    <rect x="74" y="122" width="24" height="8" style="fill:rgb(230,225,228);"/>
                </g>
            </g>
        </g>
    </g>
</svg>
