<?xml version="1.0" encoding="UTF-8" standalone="no"?>
<!DOCTYPE svg PUBLIC "-//W3C//DTD SVG 1.1//EN" "http://www.w3.org/Graphics/SVG/1.1/DTD/svg11.dtd">
<svg width="100%" height="100%" viewBox="0 0 64 96" version="1.1" xmlns="http://www.w3.org/2000/svg" xmlns:xlink="http://www.w3.org/1999/xlink" xml:space="preserve" xmlns:serif="http://www.serif.com/" style="fill-rule:evenodd;clip-rule:evenodd;stroke-linejoin:round;stroke-miterlimit:2;">
    <g transform="matrix(1,0,0,1,-204,-200)">
        <g id="add8" transform="matrix(1,0,0,1,204,200)">
            <rect x="0" y="0" width="64" height="96" style="fill:none;"/>
            <clipPath id="_clip1">
                <rect x="0" y="0" width="64" height="96"/>
            </clipPath>
            <g clip-path="url(#_clip1)">
                <g transform="matrix(0.914286,0,0,0.880734,-658.286,-559.266)">
                    <path d="M785.625,635C786.785,635 787.898,635.478 788.719,636.33C789.539,637.182 790,638.337 790,639.542L790,739.458C790,740.663 789.539,741.818 788.719,742.67C787.898,743.522 786.785,744 785.625,744L724.375,744C723.215,744 722.102,743.522 721.281,742.67C720.461,741.818 720,740.663 720,739.458L720,639.542C720,638.337 720.461,637.182 721.281,636.33C722.102,635.478 723.215,635 724.375,635L785.625,635Z" style="fill:rgb(237,123,43);"/>
                </g>
                <g transform="matrix(0.95,5.55112e-17,5.55112e-17,-0.95,-95,93.6)">
                    <path d="M152.632,28L156.842,28L156.842,13.263C156.842,10.356 154.486,8 151.579,8L115.789,8C112.883,8 110.526,10.356 110.526,13.263L110.526,39.733C110.526,41.726 111.653,43.549 113.436,44.44L143.629,59.536C143.985,59.715 144.211,60.079 144.211,60.478L144.211,82.737C144.211,83.318 143.739,83.789 143.158,83.789L115.789,83.789C115.208,83.789 114.737,83.318 114.737,82.737L114.737,52.211L110.526,52.211L110.526,82.737C110.526,85.644 112.883,88 115.789,88L151.579,88C154.486,88 156.842,85.644 156.842,82.737L156.842,64.689C156.842,62.695 155.716,60.873 153.933,59.981L123.74,44.885C123.383,44.706 123.158,44.342 123.158,43.943L123.158,13.263C123.158,12.682 123.629,12.211 124.211,12.211L151.579,12.211C152.16,12.211 152.632,12.682 152.632,13.263L152.632,28Z" style="fill:rgb(230,225,228);"/>
                </g>
                <g transform="matrix(1,0,0,1,-48,-67)">
                    <rect x="78" y="122" width="24" height="8" style="fill:rgb(230,225,228);"/>
                </g>
                <g transform="matrix(6.12323e-17,-1,1,6.12323e-17,-84,145)">
                    <rect x="74" y="122" width="24" height="8" style="fill:rgb(230,225,228);"/>
                </g>
            </g>
        </g>
    </g>
</svg>
