<?xml version="1.0" encoding="UTF-8" standalone="no"?>
<!DOCTYPE svg PUBLIC "-//W3C//DTD SVG 1.1//EN" "http://www.w3.org/Graphics/SVG/1.1/DTD/svg11.dtd">
<svg width="100%" height="100%" viewBox="0 0 64 96" version="1.1" xmlns="http://www.w3.org/2000/svg" xmlns:xlink="http://www.w3.org/1999/xlink" xml:space="preserve" xmlns:serif="http://www.serif.com/" style="fill-rule:evenodd;clip-rule:evenodd;stroke-linejoin:round;stroke-miterlimit:2;">
    <rect id="back" x="0" y="0" width="64" height="96" style="fill:none;"/>
    <clipPath id="_clip1">
        <rect id="back1" serif:id="back" x="0" y="0" width="64" height="96"/>
    </clipPath>
    <g clip-path="url(#_clip1)">
        <g transform="matrix(0.914286,0,0,0.880734,-658.286,-559.266)">
            <path d="M785.625,635C786.785,635 787.898,635.478 788.719,636.33C789.539,637.182 790,638.337 790,639.542L790,739.458C790,740.663 789.539,741.818 788.719,742.67C787.898,743.522 786.785,744 785.625,744L724.375,744C723.215,744 722.102,743.522 721.281,742.67C720.461,741.818 720,740.663 720,739.458L720,639.542C720,638.337 720.461,637.182 721.281,636.33C722.102,635.478 723.215,635 724.375,635L785.625,635Z" style="fill:rgb(131,57,93);"/>
        </g>
        <g transform="matrix(1,0,0,1,-116,-36)">
            <path d="M126,122L126,51C126,48.239 128.239,46 131,46L138,46L138,58L131,58C130.448,58 130,58.448 130,59L130,62L138,62L138,66L130,66L130,122L126,122Z" style="fill:rgb(233,153,72);"/>
        </g>
        <g transform="matrix(1,0,0,1,-116,-36)">
            <path d="M134,70L138,70L138,109C138,109.552 138.448,110 139,110L154,110L154,122L139,122C136.239,122 134,119.761 134,117L134,70Z" style="fill:rgb(233,153,72);"/>
        </g>
        <g transform="matrix(1,0,0,1,-116,-36)">
            <path d="M147,46L149,46C151.761,46 154,48.239 154,51L154,101C154,103.761 151.761,106 149,106L147,106C144.239,106 142,103.761 142,101L142,51C142,48.239 144.239,46 147,46ZM147,58C146.448,58 146,58.448 146,59L146,101C146,101.552 146.448,102 147,102L149,102C149.552,102 150,101.552 150,101L150,59C150,58.448 149.552,58 149,58L147,58Z" style="fill:rgb(233,153,72);"/>
        </g>
        <g transform="matrix(1,0,0,1,-116,-36)">
            <path d="M162,86L162,90L158,90L158,51C158,48.239 160.239,46 163,46L165,46C167.761,46 170,48.239 170,51L170,81C170,83.761 167.761,86 165,86L162,86ZM162,74L165,74C165.552,74 166,73.552 166,73L166,59C166,58.448 165.552,58 165,58L163,58C162.448,58 162,58.448 162,59L162,74Z" style="fill:rgb(233,153,72);"/>
        </g>
        <g transform="matrix(1,0,0,1,-116,-36)">
            <path d="M158,110.172L165.707,102.464C165.895,102.277 166,102.023 166,101.757L166,99C166,98.448 165.552,98 165,98L158,98L158,94L165,94C167.761,94 170,96.239 170,99L170,110.757C170,112.083 169.473,113.355 168.536,114.293L160.828,122L158,122L158,110.172Z" style="fill:rgb(238,232,225);"/>
        </g>
    </g>
</svg>
