<?xml version="1.0" encoding="UTF-8" standalone="no"?>
<!DOCTYPE svg PUBLIC "-//W3C//DTD SVG 1.1//EN" "http://www.w3.org/Graphics/SVG/1.1/DTD/svg11.dtd">
<svg width="100%" height="100%" viewBox="0 0 64 96" version="1.1" xmlns="http://www.w3.org/2000/svg" xmlns:xlink="http://www.w3.org/1999/xlink" xml:space="preserve" xmlns:serif="http://www.serif.com/" style="fill-rule:evenodd;clip-rule:evenodd;stroke-linejoin:round;stroke-miterlimit:2;">
    <g transform="matrix(1,0,0,1,-340,-200)">
        <g id="multiply2" transform="matrix(1,0,0,1,340,200)">
            <rect x="0" y="0" width="64" height="96" style="fill:none;"/>
            <clipPath id="_clip1">
                <rect x="0" y="0" width="64" height="96"/>
            </clipPath>
            <g clip-path="url(#_clip1)">
                <g transform="matrix(0.914286,0,0,0.880734,-658.286,-559.266)">
                    <path d="M785.625,635C786.785,635 787.898,635.478 788.719,636.33C789.539,637.182 790,638.337 790,639.542L790,739.458C790,740.663 789.539,741.818 788.719,742.67C787.898,743.522 786.785,744 785.625,744L724.375,744C723.215,744 722.102,743.522 721.281,742.67C720.461,741.818 720,740.663 720,739.458L720,639.542C720,638.337 720.461,637.182 721.281,636.33C722.102,635.478 723.215,635 724.375,635L785.625,635Z" style="fill:rgb(237,123,43);"/>
                </g>
                <g transform="matrix(-0.95,5.55112e-17,-5.55112e-17,-0.95,159,93.6)">
                    <path d="M110.526,12.211L110.526,8L156.842,8L156.842,35.83C156.842,37.547 156.004,39.156 154.597,40.141L115.186,67.729C114.904,67.926 114.737,68.248 114.737,68.592L114.737,74.316C114.737,74.897 115.208,75.368 115.79,75.368L156.842,75.368L156.842,88L115.789,88C112.883,88 110.526,85.644 110.526,82.737L110.526,68.592C110.526,66.874 111.364,65.265 112.771,64.28L143.762,42.587C144.043,42.39 144.211,42.068 144.211,41.724L144.211,12.211L110.526,12.211Z" style="fill:rgb(230,225,228);"/>
                </g>
                <g transform="matrix(1,0,0,1,-408,-68)">
                    <path d="M438,127.657L438,122L443.657,122L450,128.343L456.343,122L462,122L462,127.657L455.657,134L462,140.343L462,146L456.343,146L450,139.657L443.657,146L438,146L438,140.343L444.343,134L438,127.657Z" style="fill:rgb(230,225,228);"/>
                </g>
            </g>
        </g>
    </g>
</svg>
