<?xml version="1.0" encoding="UTF-8" standalone="no"?>
<!DOCTYPE svg PUBLIC "-//W3C//DTD SVG 1.1//EN" "http://www.w3.org/Graphics/SVG/1.1/DTD/svg11.dtd">
<svg width="100%" height="100%" viewBox="0 0 64 96" version="1.1" xmlns="http://www.w3.org/2000/svg" xmlns:xlink="http://www.w3.org/1999/xlink" xml:space="preserve" xmlns:serif="http://www.serif.com/" style="fill-rule:evenodd;clip-rule:evenodd;stroke-linecap:square;stroke-linejoin:round;stroke-miterlimit:1.5;">
    <g transform="matrix(1,0,0,1,-68,-100)">
        <g id="number7" transform="matrix(1,0,0,1,68,100)">
            <rect x="0" y="0" width="64" height="96" style="fill:none;"/>
            <clipPath id="_clip1">
                <rect x="0" y="0" width="64" height="96"/>
            </clipPath>
            <g clip-path="url(#_clip1)">
                <g transform="matrix(0.914286,0,0,0.880734,-658.286,-559.266)">
                    <path d="M785.625,635C786.785,635 787.898,635.478 788.719,636.33C789.539,637.182 790,638.337 790,639.542L790,739.458C790,740.663 789.539,741.818 788.719,742.67C787.898,743.522 786.785,744 785.625,744L724.375,744C723.215,744 722.102,743.522 721.281,742.67C720.461,741.818 720,740.663 720,739.458L720,639.542C720,638.337 720.461,637.182 721.281,636.33C722.102,635.478 723.215,635 724.375,635L785.625,635Z" style="fill:rgb(230,225,228);"/>
                </g>
                <g transform="matrix(-0.95,-5.55112e-17,-5.55112e-17,0.95,127,2.4)">
                    <path d="M123.158,20.632L123.158,8L82.105,8C79.198,8 76.842,10.356 76.842,13.263L76.842,42.481C76.842,43.877 77.397,45.216 78.384,46.203L121.053,88.872L125.263,84.662L125.263,78.707L81.361,34.805C81.164,34.607 81.053,34.34 81.053,34.06L81.053,21.684C81.053,21.103 81.524,20.632 82.105,20.632L123.158,20.632Z" style="fill:rgb(234,107,69);"/>
                </g>
                <g transform="matrix(0.727273,0,0,0.727273,-24.7273,8.72727)">
                    <rect x="78" y="10" width="11" height="11" style="fill:rgb(141,123,143);"/>
                    <path d="M91.75,23.75L75.25,23.75L75.25,7.25L91.75,7.25L91.75,23.75ZM89,10L78,10L78,21L89,21L89,10Z" style="fill:rgb(230,225,228);"/>
                </g>
                <g transform="matrix(0.727273,0,0,0.727273,-16.7273,36.7273)">
                    <rect x="78" y="10" width="11" height="11" style="fill:rgb(141,123,143);"/>
                    <path d="M91.75,23.75L75.25,23.75L75.25,7.25L91.75,7.25L91.75,23.75ZM89,10L78,10L78,21L89,21L89,10Z" style="fill:rgb(230,225,228);"/>
                </g>
                <g transform="matrix(0.727273,0,0,0.727273,-8.72727,72.7273)">
                    <rect x="78" y="10" width="11" height="11" style="fill:rgb(141,123,143);"/>
                    <path d="M91.75,23.75L75.25,23.75L75.25,7.25L91.75,7.25L91.75,23.75ZM89,10L78,10L78,21L89,21L89,10Z" style="fill:rgb(230,225,228);"/>
                </g>
                <g transform="matrix(0.5,0,0,0.5,-6,12)">
                    <path d="M88,12L80,12L80,20L88,20" style="fill:none;stroke:rgb(230,225,228);stroke-width:2px;"/>
                </g>
                <g transform="matrix(0.5,0,0,0.5,2,40)">
                    <path d="M88,12L80,12L80,20L88,20" style="fill:none;stroke:rgb(230,225,228);stroke-width:2px;"/>
                </g>
                <g transform="matrix(0.5,0,0,0.5,-22,4)">
                    <path d="M112,32L118,32" style="fill:none;stroke:rgb(230,225,228);stroke-width:2px;"/>
                </g>
                <g transform="matrix(0.5,0,0,0.5,-14,32)">
                    <path d="M112,32L118,32" style="fill:none;stroke:rgb(230,225,228);stroke-width:2px;"/>
                </g>
                <g transform="matrix(0.5,0,0,0.5,-24,52)">
                    <path d="M148,68L148,60L156,68L156,60" style="fill:none;stroke:rgb(230,225,228);stroke-width:2px;"/>
                </g>
                <g transform="matrix(0.727273,0,0,0.727273,-48.7273,8.72727)">
                    <rect x="78" y="10" width="11" height="11" style="fill:rgb(141,123,143);"/>
                    <path d="M91.75,23.75L75.25,23.75L75.25,7.25L91.75,7.25L91.75,23.75ZM89,10L78,10L78,21L89,21L89,10Z" style="fill:rgb(230,225,228);"/>
                </g>
                <g transform="matrix(4.08216e-17,0.666667,-0.666667,4.08216e-17,31.3333,-56.6667)">
                    <path d="M112,26L112,32L118.05,26L118,32" style="fill:none;stroke:rgb(230,225,228);stroke-width:1.5px;"/>
                </g>
                <g transform="matrix(0.727273,0,0,0.727273,-24.7273,28.7273)">
                    <rect x="78" y="10" width="11" height="11" style="fill:rgb(141,123,143);"/>
                </g>
                <g transform="matrix(4.08216e-17,0.666667,-0.666667,4.08216e-17,55.3333,-36.6667)">
                    <path d="M112,26L118,32L112,32" style="fill:none;stroke:rgb(230,225,228);stroke-width:1.5px;"/>
                </g>
            </g>
        </g>
    </g>
</svg>
