<?xml version="1.0" encoding="UTF-8" standalone="no"?>
<!DOCTYPE svg PUBLIC "-//W3C//DTD SVG 1.1//EN" "http://www.w3.org/Graphics/SVG/1.1/DTD/svg11.dtd">
<svg width="100%" height="100%" viewBox="0 0 64 96" version="1.1" xmlns="http://www.w3.org/2000/svg" xmlns:xlink="http://www.w3.org/1999/xlink" xml:space="preserve" xmlns:serif="http://www.serif.com/" style="fill-rule:evenodd;clip-rule:evenodd;stroke-linecap:square;stroke-linejoin:round;stroke-miterlimit:1.5;">
    <g transform="matrix(1,0,0,1,-136,-100)">
        <g id="number8" transform="matrix(1,0,0,1,136,100)">
            <rect x="0" y="0" width="64" height="96" style="fill:none;"/>
            <clipPath id="_clip1">
                <rect x="0" y="0" width="64" height="96"/>
            </clipPath>
            <g clip-path="url(#_clip1)">
                <g transform="matrix(0.914286,0,0,0.880734,-658.286,-559.266)">
                    <path d="M785.625,635C786.785,635 787.898,635.478 788.719,636.33C789.539,637.182 790,638.337 790,639.542L790,739.458C790,740.663 789.539,741.818 788.719,742.67C787.898,743.522 786.785,744 785.625,744L724.375,744C723.215,744 722.102,743.522 721.281,742.67C720.461,741.818 720,740.663 720,739.458L720,639.542C720,638.337 720.461,637.182 721.281,636.33C722.102,635.478 723.215,635 724.375,635L785.625,635Z" style="fill:rgb(230,225,228);"/>
                </g>
                <g transform="matrix(0.95,-5.55112e-17,5.55112e-17,0.95,-63,2.4)">
                    <path d="M110.526,50.105L123.158,50.105L123.158,13.263C123.158,10.356 120.802,8 117.895,8L82.105,8C79.199,8 76.842,10.356 76.842,13.263L76.842,25.639C76.842,27.035 77.397,28.374 78.384,29.361L118.639,69.616C118.836,69.814 118.947,70.081 118.947,70.361L118.947,74.316C118.947,74.897 118.476,75.368 117.895,75.368L90.526,75.368C89.945,75.368 89.474,74.897 89.474,74.316L89.474,45.895L76.842,45.895L76.842,82.737C76.842,85.644 79.198,88 82.105,88L117.895,88C120.801,88 123.158,85.644 123.158,82.737L123.158,70.361C123.158,68.965 122.603,67.626 121.616,66.639L81.361,26.384C81.164,26.186 81.053,25.919 81.053,25.639L81.053,21.684C81.053,21.103 81.524,20.632 82.105,20.632L109.474,20.632C110.055,20.632 110.526,21.103 110.526,21.684L110.526,50.105Z" style="fill:rgb(120,146,16);"/>
                </g>
                <g transform="matrix(0.727273,0,0,0.727273,-16.7273,16.7273)">
                    <rect x="78" y="10" width="11" height="11" style="fill:rgb(32,93,61);"/>
                    <path d="M91.75,23.75L75.25,23.75L75.25,7.25L91.75,7.25L91.75,23.75ZM89,10L78,10L78,21L89,21L89,10Z" style="fill:rgb(230,225,228);"/>
                </g>
                <g transform="matrix(0.727273,0,0,0.727273,-40.7273,54.7273)">
                    <rect x="78" y="10" width="11" height="11" style="fill:rgb(32,93,61);"/>
                    <path d="M91.75,23.75L75.25,23.75L75.25,7.25L91.75,7.25L91.75,23.75ZM89,10L78,10L78,21L89,21L89,10Z" style="fill:rgb(230,225,228);"/>
                </g>
                <g transform="matrix(0.727273,0,0,0.727273,-32.7273,46.7273)">
                    <rect x="78" y="10" width="11" height="11" style="fill:rgb(32,93,61);"/>
                </g>
                <g transform="matrix(0.727273,0,0,0.727273,-16.7273,72.7273)">
                    <rect x="78" y="10" width="11" height="11" style="fill:rgb(32,93,61);"/>
                    <path d="M91.75,23.75L75.25,23.75L75.25,7.25L91.75,7.25L91.75,23.75ZM89,10L78,10L78,21L89,21L89,10Z" style="fill:rgb(230,225,228);"/>
                </g>
                <g transform="matrix(0.727273,0,0,0.727273,-48.7273,0.727273)">
                    <rect x="78" y="10" width="11" height="11" style="fill:rgb(32,93,61);"/>
                    <path d="M91.75,23.75L75.25,23.75L75.25,7.25L91.75,7.25L91.75,23.75ZM89,10L78,10L78,21L89,21L89,10Z" style="fill:rgb(230,225,228);"/>
                </g>
                <g transform="matrix(4.08216e-17,0.666667,-0.666667,4.08216e-17,65.3333,-48.6667)">
                    <path d="M112,32L118,32" style="fill:none;stroke:rgb(230,225,228);stroke-width:1.5px;"/>
                </g>
                <g transform="matrix(4.08216e-17,0.666667,-0.666667,4.08216e-17,39.3333,-10.6667)">
                    <path d="M112,32L118,32" style="fill:none;stroke:rgb(230,225,228);stroke-width:1.5px;"/>
                </g>
                <g transform="matrix(4.08216e-17,0.666667,-0.666667,4.08216e-17,43.3333,-10.6667)">
                    <path d="M112,32L118,32" style="fill:none;stroke:rgb(230,225,228);stroke-width:1.5px;"/>
                </g>
                <g transform="matrix(0.666667,0,0,0.666667,-56.6667,44.6667)">
                    <path d="M112,32L118,32" style="fill:none;stroke:rgb(230,225,228);stroke-width:1.5px;"/>
                </g>
                <g transform="matrix(4.08216e-17,0.666667,-0.666667,4.08216e-17,47.3333,-18.6667)">
                    <path d="M112,26L112,32L118,32L118,26L115,26L115,29" style="fill:none;stroke:rgb(230,225,228);stroke-width:1.5px;"/>
                </g>
                <g transform="matrix(4.08216e-17,0.666667,-0.666667,4.08216e-17,65.3333,7.33333)">
                    <path d="M112,32L118,32" style="fill:none;stroke:rgb(230,225,228);stroke-width:1.5px;"/>
                </g>
                <g transform="matrix(0.666667,0,0,0.666667,-32.6667,60.6667)">
                    <path d="M112,32L118,32" style="fill:none;stroke:rgb(230,225,228);stroke-width:1.5px;"/>
                </g>
                <g transform="matrix(0.5,0,0,0.5,-30,4)">
                    <path d="M88,12L80,12L80,20L88,20" style="fill:none;stroke:rgb(230,225,228);stroke-width:2px;"/>
                </g>
                <g transform="matrix(0.5,0,0,0.5,-46,-4)">
                    <path d="M112,32L118,32" style="fill:none;stroke:rgb(230,225,228);stroke-width:2px;"/>
                </g>
            </g>
        </g>
    </g>
</svg>
