<?xml version="1.0" encoding="UTF-8" standalone="no"?>
<!DOCTYPE svg PUBLIC "-//W3C//DTD SVG 1.1//EN" "http://www.w3.org/Graphics/SVG/1.1/DTD/svg11.dtd">
<svg width="100%" height="100%" viewBox="0 0 64 96" version="1.1" xmlns="http://www.w3.org/2000/svg" xmlns:xlink="http://www.w3.org/1999/xlink" xml:space="preserve" xmlns:serif="http://www.serif.com/" style="fill-rule:evenodd;clip-rule:evenodd;stroke-linecap:square;stroke-linejoin:round;stroke-miterlimit:1.5;">
    <g transform="matrix(1,0,0,1,-272,0)">
        <g id="number3" transform="matrix(1,0,0,1,272,2.04148e-09)">
            <rect x="0" y="0" width="64" height="96" style="fill:none;"/>
            <clipPath id="_clip1">
                <rect x="0" y="0" width="64" height="96"/>
            </clipPath>
            <g clip-path="url(#_clip1)">
                <g transform="matrix(0.914286,0,0,0.880734,-658.286,-559.266)">
                    <path d="M785.625,635C786.785,635 787.898,635.478 788.719,636.33C789.539,637.182 790,638.337 790,639.542L790,739.458C790,740.663 789.539,741.818 788.719,742.67C787.898,743.522 786.785,744 785.625,744L724.375,744C723.215,744 722.102,743.522 721.281,742.67C720.461,741.818 720,740.663 720,739.458L720,639.542C720,638.337 720.461,637.182 721.281,636.33C722.102,635.478 723.215,635 724.375,635L785.625,635Z" style="fill:rgb(230,225,228);"/>
                </g>
                <g transform="matrix(0.95,-5.55112e-17,5.55112e-17,0.95,-63,2.4)">
                    <path d="M88.602,45.895L110.218,24.278C110.415,24.081 110.526,23.813 110.526,23.534L110.526,13.263C110.526,12.682 110.055,12.211 109.474,12.211L76.842,12.211L76.842,8L117.895,8C120.802,8 123.158,10.356 123.158,13.263L123.158,23.534C123.158,24.93 122.603,26.269 121.616,27.256L100.872,48L121.616,68.744C122.603,69.731 123.158,71.07 123.158,72.466L123.158,82.737C123.158,85.644 120.802,88 117.895,88L76.842,88L76.842,83.789L109.474,83.789C110.055,83.789 110.526,83.318 110.526,82.737L110.526,72.466C110.526,72.187 110.415,71.919 110.218,71.722L88.602,50.105L76.842,50.105L76.842,45.895L88.602,45.895Z" style="fill:rgb(182,16,54);"/>
                </g>
                <g transform="matrix(0.727273,0,0,0.727273,-28.7273,72.7273)">
                    <rect x="78" y="10" width="11" height="11" style="fill:rgb(153,130,90);"/>
                    <path d="M91.75,23.75L75.25,23.75L75.25,7.25L91.75,7.25L91.75,23.75ZM89,10L78,10L78,21L89,21L89,10Z" style="fill:rgb(230,225,228);"/>
                </g>
                <g transform="matrix(0.5,0,0,0.5,-10,76)">
                    <path d="M88,12L80,12L80,20L88,20" style="fill:none;stroke:rgb(230,225,228);stroke-width:2px;"/>
                </g>
                <g transform="matrix(0.5,0,0,0.5,-26,68)">
                    <path d="M112,32L118,32" style="fill:none;stroke:rgb(230,225,228);stroke-width:2px;"/>
                </g>
                <g transform="matrix(0.727273,0,0,0.727273,-28.7273,0.727273)">
                    <rect x="78" y="10" width="11" height="11" style="fill:rgb(153,130,90);"/>
                    <path d="M91.75,23.75L75.25,23.75L75.25,7.25L91.75,7.25L91.75,23.75ZM89,10L78,10L78,21L89,21L89,10Z" style="fill:rgb(230,225,228);"/>
                </g>
                <g transform="matrix(0.727273,0,0,0.727273,-48.7273,20.7273)">
                    <rect x="78" y="10" width="11" height="11" style="fill:rgb(153,130,90);"/>
                </g>
                <g transform="matrix(0.727273,0,0,0.727273,-8.72727,36.7273)">
                    <rect x="78" y="10" width="11" height="11" style="fill:rgb(153,130,90);"/>
                </g>
                <g transform="matrix(0.666667,0,0,0.666667,-44.6667,-11.3333)">
                    <path d="M112,32L118,32" style="fill:none;stroke:rgb(230,225,228);stroke-width:1.5px;"/>
                </g>
                <g transform="matrix(4.08216e-17,0.666667,-0.666667,4.08216e-17,53.3333,-64.6667)">
                    <path d="M112,32L118,32" style="fill:none;stroke:rgb(230,225,228);stroke-width:1.5px;"/>
                </g>
                <g transform="matrix(4.08216e-17,0.666667,-0.666667,4.08216e-17,71.3333,-28.6667)">
                    <path d="M115,32L115,29L112,26L112,32L118,32" style="fill:none;stroke:rgb(230,225,228);stroke-width:1.5px;"/>
                </g>
                <g transform="matrix(0.5,0,0,0.5,-132,16)">
                    <path d="M284,28L284,36" style="fill:none;stroke:rgb(230,225,228);stroke-width:2px;"/>
                </g>
                <g transform="matrix(0.5,0,0,0.5,-128,16)">
                    <path d="M284,28L284,36" style="fill:none;stroke:rgb(230,225,228);stroke-width:2px;"/>
                </g>
                <g transform="matrix(3.06162e-17,-0.5,0.5,3.06162e-17,-4,174)">
                    <path d="M284,28L284,36" style="fill:none;stroke:rgb(230,225,228);stroke-width:2px;"/>
                </g>
                <g transform="matrix(0.5,0,0,0.5,-92,32)">
                    <path d="M288,32L292,36" style="fill:none;stroke:rgb(230,225,228);stroke-width:2px;"/>
                </g>
                <g transform="matrix(0.727273,0,0,0.727273,-48.7273,52.7273)">
                    <rect x="78" y="10" width="11" height="11" style="fill:rgb(153,130,90);"/>
                </g>
                <g transform="matrix(0.5,0,0,0.5,-30,56)">
                    <path d="M88,12L80,12L80,20L88,20" style="fill:none;stroke:rgb(230,225,228);stroke-width:2px;"/>
                </g>
                <g transform="matrix(0.5,0,0,0.5,-46,48)">
                    <path d="M112,32L118,32" style="fill:none;stroke:rgb(230,225,228);stroke-width:2px;"/>
                </g>
                <g transform="matrix(1,0,0,5,-304,-378)">
                    <rect x="314" y="78" width="12" height="2" style="fill:rgb(182,16,54);"/>
                </g>
            </g>
        </g>
    </g>
</svg>
