<?xml version="1.0" encoding="UTF-8" standalone="no"?>
<!DOCTYPE svg PUBLIC "-//W3C//DTD SVG 1.1//EN" "http://www.w3.org/Graphics/SVG/1.1/DTD/svg11.dtd">
<svg width="100%" height="100%" viewBox="0 0 64 96" version="1.1" xmlns="http://www.w3.org/2000/svg" xmlns:xlink="http://www.w3.org/1999/xlink" xml:space="preserve" xmlns:serif="http://www.serif.com/" style="fill-rule:evenodd;clip-rule:evenodd;stroke-linejoin:round;stroke-miterlimit:2;">
    <g transform="matrix(1,0,0,1,-272,-200)">
        <g id="add10" transform="matrix(1,0,0,1,272,200)">
            <rect x="0" y="0" width="64" height="96" style="fill:none;"/>
            <clipPath id="_clip1">
                <rect x="0" y="0" width="64" height="96"/>
            </clipPath>
            <g clip-path="url(#_clip1)">
                <g transform="matrix(0.914286,0,0,0.880734,-658.286,-559.266)">
                    <path d="M785.625,635C786.785,635 787.898,635.478 788.719,636.33C789.539,637.182 790,638.337 790,639.542L790,739.458C790,740.663 789.539,741.818 788.719,742.67C787.898,743.522 786.785,744 785.625,744L724.375,744C723.215,744 722.102,743.522 721.281,742.67C720.461,741.818 720,740.663 720,739.458L720,639.542C720,638.337 720.461,637.182 721.281,636.33C722.102,635.478 723.215,635 724.375,635L785.625,635Z" style="fill:rgb(237,123,43);"/>
                </g>
                <g transform="matrix(-0.95,5.55112e-17,-5.55112e-17,-0.95,159,93.6)">
                    <path d="M152.632,12.211L152.632,82.737C152.632,83.318 153.103,83.789 153.684,83.789L156.842,83.789L156.842,88L145.263,88C142.356,88 140,85.644 140,82.737L140,8L156.842,8L156.842,12.211L152.632,12.211ZM115.789,88C112.883,88 110.526,85.644 110.526,82.737L110.526,13.263C110.526,10.356 112.883,8 115.789,8L130.526,8C133.433,8 135.789,10.356 135.789,13.263L135.789,82.737C135.789,85.644 133.433,88 130.526,88L115.789,88ZM115.789,79.579L130.526,79.579C131.108,79.579 131.579,79.108 131.579,78.526L131.579,17.474C131.579,16.892 131.108,16.421 130.526,16.421L115.789,16.421C115.208,16.421 114.737,16.892 114.737,17.474L114.737,78.526C114.737,79.108 115.208,79.579 115.789,79.579Z" style="fill:rgb(230,225,228);"/>
                </g>
                <g transform="matrix(2.06667,0,0,1,-744.4,-116)">
                    <rect x="366" y="144" width="15" height="32" style="fill:rgb(237,123,43);"/>
                </g>
                <g transform="matrix(1,0,0,1,-64,-82)">
                    <rect x="78" y="122" width="24" height="8" style="fill:rgb(230,225,228);"/>
                </g>
                <g transform="matrix(6.12323e-17,-1,1,6.12323e-17,-100,130)">
                    <rect x="74" y="122" width="24" height="8" style="fill:rgb(230,225,228);"/>
                </g>
            </g>
        </g>
    </g>
</svg>
