<?xml version="1.0" encoding="UTF-8" standalone="no"?>
<!DOCTYPE svg PUBLIC "-//W3C//DTD SVG 1.1//EN" "http://www.w3.org/Graphics/SVG/1.1/DTD/svg11.dtd">
<svg width="100%" height="100%" viewBox="0 0 64 96" version="1.1" xmlns="http://www.w3.org/2000/svg" xmlns:xlink="http://www.w3.org/1999/xlink" xml:space="preserve" xmlns:serif="http://www.serif.com/" style="fill-rule:evenodd;clip-rule:evenodd;stroke-linecap:square;stroke-linejoin:round;stroke-miterlimit:1.5;">
    <g transform="matrix(1,0,0,1,-204,-100)">
        <g id="number9" transform="matrix(1,0,0,1,204,100)">
            <rect x="0" y="0" width="64" height="96" style="fill:none;"/>
            <clipPath id="_clip1">
                <rect x="0" y="0" width="64" height="96"/>
            </clipPath>
            <g clip-path="url(#_clip1)">
                <g transform="matrix(0.914286,0,0,0.880734,-658.286,-559.266)">
                    <path d="M785.625,635C786.785,635 787.898,635.478 788.719,636.33C789.539,637.182 790,638.337 790,639.542L790,739.458C790,740.663 789.539,741.818 788.719,742.67C787.898,743.522 786.785,744 785.625,744L724.375,744C723.215,744 722.102,743.522 721.281,742.67C720.461,741.818 720,740.663 720,739.458L720,639.542C720,638.337 720.461,637.182 721.281,636.33C722.102,635.478 723.215,635 724.375,635L785.625,635Z" style="fill:rgb(230,225,228);"/>
                </g>
                <g transform="matrix(-0.95,5.55112e-17,-5.55112e-17,-0.95,127,93.6)">
                    <path d="M123.158,8L123.158,20.632L82.105,20.632C81.524,20.632 81.053,21.103 81.053,21.684L81.053,47.546C81.053,47.895 81.226,48.222 81.515,48.418C81.804,48.614 82.172,48.653 82.496,48.524L115.94,35.146C117.562,34.497 119.399,34.695 120.845,35.674C122.292,36.654 123.158,38.286 123.158,40.033L123.158,82.737C123.158,85.644 120.802,88 117.895,88L82.105,88C79.199,88 76.842,85.644 76.842,82.737L76.842,58.526L89.474,58.526L89.474,82.737C89.474,83.318 89.945,83.789 90.526,83.789L109.474,83.789C110.055,83.789 110.526,83.318 110.526,82.737L110.526,43.401C110.526,43.052 110.353,42.725 110.064,42.53C109.775,42.334 109.407,42.294 109.083,42.424L84.06,52.433C82.438,53.082 80.601,52.884 79.155,51.904C77.708,50.925 76.842,49.293 76.842,47.546L76.842,13.263C76.842,10.356 79.198,8 82.105,8L123.158,8Z" style="fill:rgb(205,142,65);"/>
                </g>
                <g transform="matrix(0.727273,0,0,0.727273,-48.7273,16.7273)">
                    <rect x="78" y="10" width="11" height="11" style="fill:rgb(218,28,81);"/>
                    <path d="M91.75,23.75L75.25,23.75L75.25,7.25L91.75,7.25L91.75,23.75ZM89,10L78,10L78,21L89,21L89,10Z" style="fill:rgb(230,225,228);"/>
                </g>
                <g transform="matrix(0.727273,0,0,0.727273,-28.7273,64.7273)">
                    <rect x="78" y="10" width="11" height="11" style="fill:rgb(218,28,81);"/>
                    <path d="M91.75,23.75L75.25,23.75L75.25,7.25L91.75,7.25L91.75,23.75ZM89,10L78,10L78,21L89,21L89,10Z" style="fill:rgb(230,225,228);"/>
                </g>
                <g transform="matrix(0.727273,0,0,0.727273,-16.7273,16.7273)">
                    <rect x="78" y="10" width="11" height="11" style="fill:rgb(218,28,81);"/>
                    <path d="M91.75,23.75L75.25,23.75L75.25,7.25L91.75,7.25L91.75,23.75ZM89,10L78,10L78,21L89,21L89,10Z" style="fill:rgb(230,225,228);"/>
                </g>
                <g transform="matrix(4.08216e-17,0.666667,-0.666667,4.08216e-17,65.3333,-48.6667)">
                    <path d="M112,32L118,32" style="fill:none;stroke:rgb(230,225,228);stroke-width:1.5px;"/>
                </g>
                <g transform="matrix(-0.666667,2.77556e-17,2.77556e-17,0.666667,88.6833,8.68326)">
                    <path d="M112,26L112,32L118.05,26L118,32" style="fill:none;stroke:rgb(230,225,228);stroke-width:1.5px;"/>
                </g>
                <g transform="matrix(-0.666667,2.77556e-17,2.77556e-17,0.666667,108.683,56.6833)">
                    <path d="M112,26L112,32L118.05,26L118,32" style="fill:none;stroke:rgb(230,225,228);stroke-width:1.5px;"/>
                </g>
                <g transform="matrix(0.727273,0,0,0.727273,-8.72727,48.7273)">
                    <rect x="78" y="10" width="11" height="11" style="fill:rgb(218,28,81);"/>
                    <path d="M91.75,23.75L75.25,23.75L75.25,7.25L91.75,7.25L91.75,23.75ZM89,10L78,10L78,21L89,21L89,10Z" style="fill:rgb(230,225,228);"/>
                </g>
                <g transform="matrix(0.5,0,0,0.5,10,52)">
                    <path d="M88,12L80,12L80,20L88,20" style="fill:none;stroke:rgb(230,225,228);stroke-width:2px;"/>
                </g>
                <g transform="matrix(0.5,0,0,0.5,-6,44)">
                    <path d="M112,32L118,32" style="fill:none;stroke:rgb(230,225,228);stroke-width:2px;"/>
                </g>
            </g>
        </g>
    </g>
</svg>
