<?xml version="1.0" encoding="UTF-8" standalone="no"?>
<!DOCTYPE svg PUBLIC "-//W3C//DTD SVG 1.1//EN" "http://www.w3.org/Graphics/SVG/1.1/DTD/svg11.dtd">
<svg width="100%" height="100%" viewBox="0 0 64 96" version="1.1" xmlns="http://www.w3.org/2000/svg" xmlns:xlink="http://www.w3.org/1999/xlink" xml:space="preserve" xmlns:serif="http://www.serif.com/" style="fill-rule:evenodd;clip-rule:evenodd;stroke-linecap:square;stroke-linejoin:round;stroke-miterlimit:1.5;">
    <g transform="matrix(1,0,0,1,-272,-100)">
        <g id="number10" transform="matrix(1,0,0,1,272,100)">
            <rect x="0" y="0" width="64" height="96" style="fill:none;"/>
            <clipPath id="_clip1">
                <rect x="0" y="0" width="64" height="96"/>
            </clipPath>
            <g clip-path="url(#_clip1)">
                <g transform="matrix(0.914286,0,0,0.880734,-658.286,-559.266)">
                    <path d="M785.625,635C786.785,635 787.898,635.478 788.719,636.33C789.539,637.182 790,638.337 790,639.542L790,739.458C790,740.663 789.539,741.818 788.719,742.67C787.898,743.522 786.785,744 785.625,744L724.375,744C723.215,744 722.102,743.522 721.281,742.67C720.461,741.818 720,740.663 720,739.458L720,639.542C720,638.337 720.461,637.182 721.281,636.33C722.102,635.478 723.215,635 724.375,635L785.625,635Z" style="fill:rgb(230,225,228);"/>
                </g>
                <g transform="matrix(-0.95,5.55112e-17,-5.55112e-17,-0.95,127,93.6)">
                    <path d="M114.737,20.632L114.737,74.316C114.737,74.897 115.208,75.368 115.79,75.368L123.158,75.368L123.158,88L115.789,88C112.883,88 110.526,85.644 110.526,82.737L110.526,20.632L106.316,20.632L106.316,8L123.158,8L123.158,20.632L114.737,20.632ZM82.105,88C79.198,88 76.842,85.644 76.842,82.737L76.842,13.263C76.842,10.356 79.198,8 82.105,8L96.842,8C99.749,8 102.105,10.356 102.105,13.263L102.105,82.737C102.105,85.644 99.749,88 96.842,88L82.105,88ZM82.105,75.368L96.842,75.368C97.423,75.368 97.895,74.897 97.895,74.316L97.895,21.684C97.895,21.103 97.423,20.632 96.842,20.632L82.105,20.632C81.524,20.632 81.053,21.103 81.053,21.684L81.053,74.316C81.053,74.897 81.524,75.368 82.105,75.368Z" style="fill:rgb(209,69,172);"/>
                </g>
                <g transform="matrix(0.727273,0,0,0.727273,-48.7273,16.7273)">
                    <rect x="78" y="10" width="11" height="11" style="fill:rgb(18,59,179);"/>
                    <path d="M91.75,23.75L75.25,23.75L75.25,7.25L91.75,7.25L91.75,23.75ZM89,10L78,10L78,21L89,21L89,10Z" style="fill:rgb(230,225,228);"/>
                </g>
                <g transform="matrix(4.08216e-17,0.666667,-0.666667,4.08216e-17,33.3333,-48.6667)">
                    <path d="M112,32L118,32" style="fill:none;stroke:rgb(230,225,228);stroke-width:1.5px;"/>
                </g>
                <g transform="matrix(0.666667,0,0,0.666667,-64.6667,4.66667)">
                    <path d="M112,32L118,32" style="fill:none;stroke:rgb(230,225,228);stroke-width:1.5px;"/>
                </g>
                <g transform="matrix(0.727273,0,0,0.727273,-8.72727,56.7273)">
                    <rect x="78" y="10" width="11" height="11" style="fill:rgb(18,59,179);"/>
                    <path d="M91.75,23.75L75.25,23.75L75.25,7.25L91.75,7.25L91.75,23.75ZM89,10L78,10L78,21L89,21L89,10Z" style="fill:rgb(230,225,228);"/>
                </g>
                <g transform="matrix(-0.666667,2.77556e-17,2.77556e-17,0.666667,128.683,48.6833)">
                    <path d="M112,26L112,32L118.05,26L118,32" style="fill:none;stroke:rgb(230,225,228);stroke-width:1.5px;"/>
                </g>
                <g transform="matrix(0.727273,0,0,0.727273,-20.7273,16.7273)">
                    <rect x="78" y="10" width="11" height="11" style="fill:rgb(18,59,179);"/>
                    <path d="M91.75,23.75L75.25,23.75L75.25,7.25L91.75,7.25L91.75,23.75ZM89,10L78,10L78,21L89,21L89,10Z" style="fill:rgb(230,225,228);"/>
                </g>
                <g transform="matrix(0.5,0,0,0.5,-2,20)">
                    <path d="M88,12L80,12L80,20L88,20" style="fill:none;stroke:rgb(230,225,228);stroke-width:2px;"/>
                </g>
                <g transform="matrix(0.5,0,0,0.5,-18,12)">
                    <path d="M112,32L118,32" style="fill:none;stroke:rgb(230,225,228);stroke-width:2px;"/>
                </g>
            </g>
        </g>
    </g>
</svg>
