<?xml version="1.0" encoding="UTF-8" standalone="no"?>
<!DOCTYPE svg PUBLIC "-//W3C//DTD SVG 1.1//EN" "http://www.w3.org/Graphics/SVG/1.1/DTD/svg11.dtd">
<svg width="100%" height="100%" viewBox="0 0 64 96" version="1.1" xmlns="http://www.w3.org/2000/svg" xmlns:xlink="http://www.w3.org/1999/xlink" xml:space="preserve" xmlns:serif="http://www.serif.com/" style="fill-rule:evenodd;clip-rule:evenodd;stroke-linecap:square;stroke-linejoin:round;stroke-miterlimit:1.5;">
    <g transform="matrix(1,0,0,1,0,-100)">
        <g id="number6" transform="matrix(1,0,0,1,1.15234e-08,100)">
            <rect x="0" y="0" width="64" height="96" style="fill:none;"/>
            <clipPath id="_clip1">
                <rect x="0" y="0" width="64" height="96"/>
            </clipPath>
            <g clip-path="url(#_clip1)">
                <g transform="matrix(0.914286,0,0,0.880734,-658.286,-559.266)">
                    <path d="M785.625,635C786.785,635 787.898,635.478 788.719,636.33C789.539,637.182 790,638.337 790,639.542L790,739.458C790,740.663 789.539,741.818 788.719,742.67C787.898,743.522 786.785,744 785.625,744L724.375,744C723.215,744 722.102,743.522 721.281,742.67C720.461,741.818 720,740.663 720,739.458L720,639.542C720,638.337 720.461,637.182 721.281,636.33C722.102,635.478 723.215,635 724.375,635L785.625,635Z" style="fill:rgb(230,225,228);"/>
                </g>
                <g transform="matrix(0.95,-5.55112e-17,5.55112e-17,0.95,-63,2.4)">
                    <path d="M81.053,21.865L121.616,62.429C122.603,63.416 123.158,64.754 123.158,66.15L123.158,82.737C123.158,85.644 120.802,88 117.895,88L82.105,88C79.198,88 76.842,85.644 76.842,82.737L76.842,13.263C76.842,10.356 79.198,8 82.105,8L123.158,8L123.158,20.632L82.105,20.632C81.524,20.632 81.053,21.103 81.053,21.684L81.053,21.865ZM89.474,36.24L89.474,82.737C89.474,83.318 89.945,83.789 90.526,83.789L109.474,83.789C110.055,83.789 110.526,83.318 110.526,82.737L110.526,57.729C110.526,57.45 110.415,57.182 110.218,56.985L89.474,36.24Z" style="fill:rgb(137,47,156);"/>
                </g>
                <g transform="matrix(0.727273,0,0,0.727273,-48.7273,15.7273)">
                    <rect x="78" y="10" width="11" height="11" style="fill:rgb(42,174,206);"/>
                    <path d="M91.75,23.75L75.25,23.75L75.25,7.25L91.75,7.25L91.75,23.75ZM89,10L78,10L78,21L89,21L89,10Z" style="fill:rgb(230,225,228);"/>
                </g>
                <g transform="matrix(0.727273,0,0,0.727273,-8.72727,23.7273)">
                    <rect x="78" y="10" width="11" height="11" style="fill:rgb(42,174,206);"/>
                    <path d="M91.75,23.75L75.25,23.75L75.25,7.25L91.75,7.25L91.75,23.75ZM89,10L78,10L78,21L89,21L89,10Z" style="fill:rgb(230,225,228);"/>
                </g>
                <g transform="matrix(4.08216e-17,0.666667,-0.666667,4.08216e-17,73.3333,-41.6667)">
                    <path d="M112,32L118,32" style="fill:none;stroke:rgb(230,225,228);stroke-width:1.5px;"/>
                </g>
                <g transform="matrix(4.08216e-17,0.666667,-0.666667,4.08216e-17,31.3333,-49.6667)">
                    <path d="M112,26L112,32L118.05,26L118,32" style="fill:none;stroke:rgb(230,225,228);stroke-width:1.5px;"/>
                </g>
                <g transform="matrix(0.727273,0,0,0.727273,-8.72727,43.7273)">
                    <rect x="78" y="10" width="11" height="11" style="fill:rgb(42,174,206);"/>
                    <path d="M91.75,23.75L75.25,23.75L75.25,7.25L91.75,7.25L91.75,23.75ZM89,10L78,10L78,21L89,21L89,10Z" style="fill:rgb(230,225,228);"/>
                </g>
                <g transform="matrix(4.08216e-17,0.666667,-0.666667,4.08216e-17,71.3333,-21.6667)">
                    <path d="M118,26L116.5,26L113.5,32L112,32" style="fill:none;stroke:rgb(230,225,228);stroke-width:1.5px;"/>
                </g>
                <g transform="matrix(-4.08216e-17,0.666667,0.666667,4.08216e-17,32.6667,-21.6667)">
                    <path d="M118,26L116.5,26L113.5,32L112,32" style="fill:none;stroke:rgb(230,225,228);stroke-width:1.5px;"/>
                </g>
            </g>
        </g>
    </g>
</svg>
